<svg width="136" height="50" fill="none" xmlns="http://www.w3.org/2000/svg"><g clip-path="url(#bbLogo_svg__a)" clip-rule="evenodd"><path d="M4.604.34h19.962c1.128 0 2.21.444 3.015 1.235a4.323 4.323 0 0 1 1.292 2.998v20.012a4.324 4.324 0 0 1-1.278 3.023 4.302 4.302 0 0 1-3.03 1.247H4.606a4.264 4.264 0 0 1-3.013-1.252c-.8-.8-1.25-1.885-1.252-3.018V4.573a4.276 4.276 0 0 1 1.263-2.997A4.254 4.254 0 0 1 4.604.341Z" stroke="#fff" stroke-width="1.42" stroke-miterlimit="10"></path><path fill-rule="evenodd" d="M15.257 3.916h-2.269v6.141c.808.001 1.597.241 2.269.691V3.916Z" fill="#fff"></path><path fill-rule="evenodd" d="M13.582 21.17a2.467 2.467 0 0 1-2.307 1.276 2.867 2.867 0 0 1-1.833-.595 3.839 3.839 0 0 1-1.158-1.68 6.468 6.468 0 0 1-.397-2.158c.008-.748.143-1.49.397-2.193.217-.65.62-1.22 1.158-1.641a2.714 2.714 0 0 1 1.833-.638 2.675 2.675 0 0 1 1.752.6 4.017 4.017 0 0 1 1.034 1.636c.216.725.324 1.479.32 2.236a5.846 5.846 0 0 1-.799 3.157Zm4.025-6.718a6.275 6.275 0 0 0-1.99-2.715 4.993 4.993 0 0 0-3.15-1.037 5.701 5.701 0 0 0-2.47.519 4.377 4.377 0 0 0-1.832 1.559H8.13V3.916H4.384v21.327s3.426.398 3.546-1.794v-.36l.043.158c.114.224.247.438.397.638.395.412.869.738 1.393.96.863.331 1.786.48 2.709.437a4.935 4.935 0 0 0 3.149-.998 6.51 6.51 0 0 0 1.986-2.711 9.99 9.99 0 0 0 .68-3.556 9.858 9.858 0 0 0-.68-3.56v-.005Z" fill="#fff"></path><path fill-rule="evenodd" d="M24.15 14.458c-1.211-3.085-4.604-4.659-7.61-3.234a5.058 5.058 0 0 0-.392.211c.456.412.86.878 1.206 1.387.39-.132.8-.196 1.21-.192 2.872 0 3.748 3.051 3.748 5.388 0 2.337-.914 5.345-3.748 5.345a3.821 3.821 0 0 1-1.306-.22 7.444 7.444 0 0 1-1.388 1.482c.13.072.273.149.43.22.864.332 1.786.48 2.71.437a4.935 4.935 0 0 0 3.149-.998 6.552 6.552 0 0 0 1.99-2.715 10.1 10.1 0 0 0 .675-3.556 9.956 9.956 0 0 0-.674-3.555ZM41.154 21.092a2.507 2.507 0 0 1-2.298 1.286 2.685 2.685 0 0 1-1.823-.61 3.31 3.31 0 0 1-1.149-1.693 5.572 5.572 0 0 1-.406-2.169 6.122 6.122 0 0 1 .406-2.168c.197-.653.6-1.224 1.149-1.627a2.685 2.685 0 0 1 1.823-.61 2.46 2.46 0 0 1 1.69.61c.472.43.843.96 1.086 1.55.216.749.33 1.524.34 2.303a5.639 5.639 0 0 1-.818 3.128Zm3.986-6.717a6.496 6.496 0 0 0-1.957-2.71 5.108 5.108 0 0 0-3.178-1.018 5.77 5.77 0 0 0-2.431.542c-.757.282-1.4.806-1.828 1.492h-.067V3.94H31.96v21.208s3.379.408 3.518-1.828v-.274l.067.14c.118.213.255.417.406.609.41.413.898.74 1.436.96a5.969 5.969 0 0 0 2.637.479 5.107 5.107 0 0 0 3.178-1.012 6.126 6.126 0 0 0 1.957-2.711 9.083 9.083 0 0 0 .68-3.527 9.392 9.392 0 0 0-.684-3.608h-.015ZM50.562 11.055v14.159h-3.718v-14.16h3.718Zm-3.718-4.002V3.94h3.718v3.114h-3.718ZM61.446 19.173c-.096.44-.28.857-.541 1.224-.274.341-.62.618-1.015.81-.432.26-.933.379-1.435.341-.499 0-.99-.116-1.436-.34a3.356 3.356 0 0 1-.957-1.018 3.718 3.718 0 0 1-.479-1.286 5.632 5.632 0 0 1-.134-1.492c.008-.498.053-.995.134-1.487.129-.43.31-.84.541-1.224.25-.36.577-.66.957-.878.42-.217.883-.334 1.354-.34a3.448 3.448 0 0 1 1.551.34c.4.227.731.559.957.96.25.421.433.88.541 1.358.084.538.128 1.082.134 1.626.001.487-.066.972-.2 1.44l.028-.034Zm.2-6.3h-.066a3.723 3.723 0 0 0-1.69-1.693 4.968 4.968 0 0 0-2.297-.543 5.668 5.668 0 0 0-2.503.543 5.144 5.144 0 0 0-1.823 1.559 6.084 6.084 0 0 0-1.149 2.168 8.224 8.224 0 0 0-.34 2.572c-.016.89.076 1.777.273 2.644.22.806.587 1.564 1.082 2.236a4.969 4.969 0 0 0 1.823 1.492 5.731 5.731 0 0 0 2.57.542 5.65 5.65 0 0 0 2.364-.48 3.914 3.914 0 0 0 1.69-1.626h.067v1.76c.09.871-.15 1.743-.675 2.443-.479.676-1.216.96-2.297.96a3.759 3.759 0 0 1-1.757-.403 2.084 2.084 0 0 1-1.014-1.44h-3.719c.04.706.274 1.386.675 1.967a3.9 3.9 0 0 0 1.436 1.353c.563.422 1.22.702 1.914.816.66.188 1.343.278 2.03.269a8.29 8.29 0 0 0 3.718-.677 5.682 5.682 0 0 0 2.096-1.56 4.406 4.406 0 0 0 .957-1.962c.184-.623.276-1.27.273-1.919v-12.84h-.479c-3.02.068-3.158 1.829-3.158 1.829v-.01ZM136.005 13.084v-.268c-.206-1.627-2.23-1.627-2.23-1.627V3.872h-2.302v7.317h-1.914v1.92h1.914v9.216c0 1.627.479 2.985 2.771 2.985.273 0 .957-.14 1.761-.207v-1.852h-.813c-.479 0-1.436 0-1.436-1.084v-9.083h2.249ZM116.669 12c-1.282-1.353-2.838-.134-3.106.139l-5.207 5.081V3.872h-2.23v21.414h2.23v-5.278l1.962-1.761 4.308 7.048h2.972l-5.59-8.751L116.669 12ZM100.79 17.018l-2.302-.614c-1.823-.48-2.565-.744-2.565-1.828 0-1.761 2.091-1.963 2.771-1.963 1.555 0 2.364.336 2.771.879 0 0 1.283 1.492 2.771 1.017-.134-1.152-1.014-3.93-5.264-3.93-2.771 0-5.265 1.353-5.265 4.405 0 1.919 1.283 2.912 3.24 3.387l2.704.677c1.962.48 2.704.882 2.704 1.967 0 1.56-1.483 2.236-3.173 2.236-3.245 0-3.584-1.761-3.651-2.846h-2.298c.134 1.694.541 4.88 6.016 4.88 3.106 0 5.475-1.766 5.475-4.61-.014-1.896-1.029-2.98-3.934-3.657Z" fill="#fff"></path><path fill-rule="evenodd" d="M123.159 12.681c2.838 0 3.719 1.963 3.829 4.131h-5.911a2.439 2.439 0 0 0-1.756.883v-.883c0-2.168 1.689-4.13 3.853-4.13h-.015Zm.206 10.556c-2.704 0-4.058-1.694-4.058-4.61h10.141c0-4.876-1.962-8.062-5.949-8.062-4.594 0-6.7 3.388-6.7 7.725 0 3.997 2.297 6.981 6.221 6.981 2.231 0 3.111-.542 3.786-1.017a5.756 5.756 0 0 0 2.431-3.795h-2.297c-.12 1.113-1.412 2.792-3.575 2.792v-.014ZM89.16 20.065c0 1.828-2.163 3.253-4.307 3.253-1.756 0-2.498-.883-2.498-2.437 0-1.766 1.823-2.102 2.972-2.24 2.91-.404 3.45-.61 3.829-.879v2.303h.005Zm3.111 3.186a.717.717 0 0 1-.808-.816v-7.993c0-3.594-3.992-3.838-5.14-3.838-3.38 0-5.542 1.285-5.676 4.471a2.387 2.387 0 0 0 2.43-1.084c.068-.15.16-.289.273-.408.398-.648 1.15-1.127 2.566-1.127 2.235 0 3.312.815 3.312 2.303 0 1.357-.675 1.559-1.216 1.626l-3.829.48c-3.92.48-4.26 3.186-4.26 4.318 0 2.442 1.829 4.069 4.394 4.069a6.27 6.27 0 0 0 5.006-2.308c.067 1.084.402 2.169 2.431 2.169a6.07 6.07 0 0 0 1.283-.269V23.15c-.292.034-.565.101-.766.101ZM73.075 23.251c-1.488 0-3.785-1.017-3.785-4.678 0-2.303.407-5.892 3.718-5.892 3.652 0 3.853 3.388 3.853 5.216 0 3.051-1.216 5.354-3.786 5.354Zm.407-12.671a4.494 4.494 0 0 0-3.986 2.168h-.072V3.872H67.06v21.006h.894a1.367 1.367 0 0 0 1.35-1.358v-.403h.067a4.025 4.025 0 0 0 3.786 2.169c4.733 0 6.083-4.477 6.083-7.797-.015-3.93-2.111-6.91-5.758-6.91ZM26.523 38.744h8.38v2.557h-2.402v6.151h-3.494v-6.15h-2.484v-2.558ZM39.148 42.261l-1.766 5.191h-3.355l3.293-8.708h3.642l3.364 8.709h-3.393l-1.785-5.192ZM43.527 38.744h8.38v2.557h-2.402v6.151H46.01v-6.15h-2.484v-2.558ZM56.153 42.261l-1.766 5.191h-3.35l3.288-8.708h3.642l3.364 8.709h-3.393l-1.785-5.192ZM70.539 43.61h-3.26v2.543h3.643v1.3H65.7v-8.67h5.03v1.305h-3.45v2.227h3.259v1.295ZM72.118 43.053c0-.724 0-1.319-.048-1.861h1.379l.076.96h.038a2.262 2.262 0 0 1 1.987-1.085c1.09 0 2.22.706 2.22 2.687v3.718h-1.579v-3.53c0-.903-.33-1.584-1.192-1.584a1.3 1.3 0 0 0-1.225.926 1.442 1.442 0 0 0-.076.48v3.684h-1.58v-4.4M81.126 39.58v1.611h1.502v1.18h-1.502v2.764c0 .763.2 1.152.809 1.152.206.007.412-.016.612-.068l.029 1.205a3.46 3.46 0 0 1-1.149.163 1.82 1.82 0 0 1-1.354-.513 2.5 2.5 0 0 1-.479-1.761V42.37h-.89v-1.18h.89v-1.166l1.546-.446M87.548 43.642c0-.58-.245-1.525-1.302-1.525-.957 0-1.374.887-1.436 1.526h2.747-.01Zm-2.733 1.104c.038 1.137.914 1.631 1.914 1.631.587.01 1.171-.087 1.723-.288l.235 1.09a5.682 5.682 0 0 1-2.183.398c-2.024 0-3.211-1.257-3.211-3.176 0-1.728 1.043-3.359 3.053-3.359s2.685 1.675 2.685 3.047c.003.226-.015.453-.052.676l-4.164-.019ZM90.19 43.202c0-.835 0-1.44-.053-2.01h1.368l.058 1.19h.043a1.867 1.867 0 0 1 1.709-1.335c.124-.003.247.01.368.039v1.487a2.281 2.281 0 0 0-.479-.043 1.386 1.386 0 0 0-1.411 1.2 2.43 2.43 0 0 0-.043.48v3.248h-1.58v-4.252M96.192 44.833c-.003.145.011.29.043.432a1.44 1.44 0 0 0 1.383 1.103c1 0 1.589-.835 1.589-2.063 0-1.108-.536-2.01-1.551-2.01a1.472 1.472 0 0 0-1.407 1.175c-.036.13-.055.264-.057.399v.964Zm-1.58-1.574c0-.81-.024-1.482-.052-2.072h1.388l.076.96h.024a2.427 2.427 0 0 1 2.144-1.105c1.436 0 2.613 1.234 2.613 3.186 0 2.275-1.412 3.359-2.833 3.359a2.016 2.016 0 0 1-1.756-.84v3.244h-1.58l-.024-6.732ZM101.997 43.202c0-.835 0-1.44-.053-2.01h1.369l.058 1.19h.043a1.87 1.87 0 0 1 1.708-1.335c.124-.003.248.01.369.039v1.487a2.285 2.285 0 0 0-.479-.043 1.394 1.394 0 0 0-1.436 1.2c-.03.158-.044.318-.043.48v3.248h-1.579v-4.252M107.199 40.222a.897.897 0 0 1-.789-.595.898.898 0 0 1 .691-1.194.894.894 0 0 1 .906.392.897.897 0 0 1 .149.495.884.884 0 0 1-.957.902Zm-.776.96h1.58v6.261h-1.58v-6.261ZM109.496 45.998a3.47 3.47 0 0 0 1.594.48c.694 0 1.005-.293 1.005-.705 0-.413-.258-.638-1.029-.912-1.22-.422-1.728-1.089-1.723-1.828 0-1.103.914-1.962 2.369-1.962.574-.01 1.142.119 1.656.374l-.316 1.113a2.827 2.827 0 0 0-1.321-.36c-.56 0-.871.279-.871.662 0 .384.302.59 1.091.879 1.135.403 1.656.96 1.661 1.919 0 1.146-.885 1.967-2.532 1.967a4.058 4.058 0 0 1-1.914-.437l.316-1.151M118.646 43.642c0-.58-.244-1.525-1.302-1.525-.957 0-1.378.887-1.435 1.526h2.747-.01Zm-2.737 1.104c.043 1.137.919 1.631 1.914 1.631a4.81 4.81 0 0 0 1.723-.288l.234 1.09a5.68 5.68 0 0 1-2.182.398c-2.024 0-3.211-1.257-3.211-3.176 0-1.728 1.043-3.359 3.048-3.359 2.006 0 2.69 1.675 2.69 3.047a3.74 3.74 0 0 1-.053.676l-4.163-.019ZM21.053 43.807l-.68-2.14c-.162-.533-.306-1.123-.435-1.627h-.029c-.129.509-.258 1.109-.411 1.622l-.67 2.145h2.225ZM18.574 45l-.737 2.452h-1.632l2.771-8.67h2.01l2.805 8.67h-1.685l-.78-2.452h-2.752Z" fill="#fff"></path></g><defs><clipPath id="bbLogo_svg__a"><path fill="#fff" d="M0 0h136v50H0z"></path></clipPath></defs></svg>