<svg xmlns="http://www.w3.org/2000/svg" viewBox="-0.5 0.5 91 34.2" width="91" height="34.2">
    <path fill-rule="evenodd" clip-rule="evenodd" d="M2.82887 1H16.0715C17.6304 1 18.9258 2.28296 18.9258 3.82892V17.207C18.9258 18.7818 17.6304 20.0647 16.0715 20.0647H2.82887C1.26998 20.0647 0 18.7818 0 17.207V3.82892C0 2.28296 1.26998 1 2.82887 1Z" fill="#A6CE39"></path>
    <path fill-rule="evenodd" clip-rule="evenodd" d="M9.89795 3.38989H8.39303V7.50177C8.93277 7.49536 9.43758 7.66856 9.89795 7.96684V3.38989Z" fill="#231F20"></path>
    <path fill-rule="evenodd" clip-rule="evenodd" d="M8.78607 14.9234C8.44318 15.5104 7.94154 15.7766 7.25258 15.7766C6.77634 15.7766 6.37947 15.6419 6.03658 15.3757C5.69368 15.0806 5.43016 14.7085 5.27142 14.2531C5.11267 13.7976 5.0079 13.3197 5.0079 12.8098C5.0079 12.2998 5.11267 11.7962 5.27142 11.3408C5.43016 10.8853 5.69368 10.5133 6.03658 10.2471C6.37947 9.95198 6.77634 9.82047 7.25258 9.82047C7.70342 9.82047 8.09711 9.95518 8.41461 10.2214C8.7067 10.4876 8.94165 10.8629 9.10039 11.3151C9.23374 11.7706 9.31311 12.2485 9.31311 12.8098C9.31311 13.6629 9.12897 14.3589 8.78607 14.9202V14.9234ZM11.4562 10.4363C11.1641 9.68897 10.7164 9.07315 10.1354 8.62091C9.55441 8.16546 8.86545 7.92811 8.04631 7.92811C7.4653 7.92811 6.90969 8.03395 6.40804 8.27451C5.9064 8.51506 5.48414 8.86146 5.19204 9.31691H5.16664V3.38965H2.68066V17.6465C2.68066 17.6465 4.95392 17.9127 5.0333 16.4437V16.2577V16.2032L5.05869 16.309C5.11267 16.4149 5.19204 16.5496 5.32221 16.7356C5.50636 16.9505 5.79846 17.1622 6.24612 17.3771C6.72236 17.592 7.30338 17.6722 8.04314 17.6722C8.86227 17.6722 9.55124 17.4573 10.1323 17.005C10.7133 16.5239 11.1641 15.937 11.453 15.1896C11.7451 14.4167 11.9039 13.6148 11.9039 12.813C11.9039 12.0111 11.7451 11.2125 11.453 10.4363H11.4562Z" fill="#ED1C24"></path>
    <path fill-rule="evenodd" clip-rule="evenodd" d="M15.7958 10.4392C14.9925 8.37685 12.7415 7.32161 10.7476 8.27742C10.6587 8.31911 10.5698 8.36722 10.4873 8.41533C10.7857 8.68476 11.0556 8.99587 11.2873 9.34227C11.535 9.25567 11.8017 9.21398 12.0906 9.21398C14.0051 9.21398 14.5734 11.2571 14.5734 12.8159C14.5734 14.3747 13.967 16.3857 12.0906 16.3857C11.7731 16.3857 11.4842 16.3376 11.2207 16.2382C10.954 16.6166 10.6428 16.9502 10.2999 17.2293C10.3857 17.2774 10.4809 17.3287 10.5857 17.3768C11.0619 17.5917 11.6429 17.6719 12.3827 17.6719C13.2018 17.6719 13.8876 17.457 14.4718 17.0047C15.0528 16.5236 15.5037 15.9367 15.7926 15.1894C16.0847 14.4164 16.2403 13.6145 16.2403 12.8127C16.2403 12.0108 16.0815 11.2122 15.7926 10.436L15.7958 10.4392Z" fill="#231F20"></path>
    <path fill-rule="evenodd" clip-rule="evenodd" d="M27.0857 14.8655C26.727 15.4557 26.2349 15.7251 25.5618 15.7251C25.0697 15.7251 24.6664 15.5904 24.3521 15.3178C23.9933 15.0451 23.7235 14.6378 23.5901 14.1856C23.4123 13.7333 23.3203 13.2811 23.3203 12.7358C23.3203 12.2387 23.4092 11.7832 23.5901 11.2861C23.7235 10.8338 23.9933 10.4714 24.3521 10.1988C24.6664 9.92615 25.0697 9.79144 25.5618 9.79144C26.0094 9.79144 26.3682 9.92615 26.6825 10.1988C26.9968 10.4714 27.2191 10.8338 27.4001 11.2412C27.5334 11.7383 27.6255 12.2387 27.6255 12.7807C27.6255 13.5954 27.4477 14.3203 27.0889 14.8655H27.0857ZM29.7305 10.3816C29.4606 9.65673 29.0129 9.06657 28.4287 8.56942C27.8446 8.11718 27.127 7.88945 26.3206 7.88945C25.7364 7.88945 25.1998 8.02416 24.7077 8.25189C24.1711 8.47961 23.7648 8.79394 23.4981 9.24939H23.4536V3.40552H20.9867V17.5854C20.9867 17.5854 23.2282 17.858 23.3171 16.3634V16.1838L23.3615 16.2736C23.406 16.3634 23.4949 16.5013 23.6314 16.6809C23.8124 16.9086 24.1235 17.0883 24.5744 17.316C25.022 17.5437 25.6062 17.6335 26.3238 17.6335C27.1302 17.6335 27.8477 17.4058 28.4319 16.9535C29.0161 16.5013 29.4638 15.8662 29.7336 15.1414C30.048 14.3716 30.1813 13.6018 30.1813 12.7871C30.1813 11.9725 30.048 11.1578 29.7336 10.3848L29.7305 10.3816Z" fill="#ED1C24"></path>
    <path fill-rule="evenodd" clip-rule="evenodd" d="M33.3169 8.16208V17.6303H30.85V8.16208H33.3169ZM30.85 5.49032V3.40552H33.3169V5.49032H30.85Z" fill="#ED1C24"></path>
    <path fill-rule="evenodd" clip-rule="evenodd" d="M40.5383 13.5985C40.4494 13.9161 40.3605 14.1887 40.1795 14.4132C39.9986 14.6409 39.7763 14.8205 39.5065 14.9553C39.2366 15.1349 38.9223 15.183 38.5635 15.183C38.2047 15.183 37.8904 15.0932 37.6205 14.9553C37.3507 14.7756 37.1729 14.5479 36.9919 14.2753C36.8586 14.0476 36.722 13.7332 36.6776 13.4157C36.5887 13.0982 36.5887 12.7357 36.5887 12.4182C36.5887 12.0558 36.6331 11.7382 36.6776 11.4207C36.7665 11.1032 36.903 10.8306 37.0364 10.606C37.2141 10.3334 37.4396 10.1538 37.665 10.0159C37.9349 9.88116 38.2492 9.78815 38.5603 9.78815C38.9635 9.78815 39.3223 9.87796 39.5922 10.0159C39.862 10.1955 40.0843 10.3783 40.2208 10.6509C40.3986 10.9236 40.4907 11.2411 40.5796 11.5554C40.624 11.873 40.6685 12.2354 40.6685 12.6427C40.6685 12.9603 40.624 13.2778 40.5351 13.5953L40.5383 13.5985ZM40.6717 9.38722H40.6272C40.3573 8.84517 39.9541 8.48274 39.5065 8.25501C39.0588 8.02729 38.5635 7.89258 37.9825 7.89258C37.3538 7.89258 36.7728 8.02729 36.322 8.25501C35.8299 8.52764 35.4267 8.84517 35.1123 9.29742C34.7536 9.70476 34.5281 10.2019 34.3504 10.7472C34.1726 11.2924 34.1249 11.8794 34.1249 12.4695C34.1249 13.1046 34.1694 13.6915 34.3059 14.2368C34.4837 14.827 34.7091 15.3241 35.0234 15.7314C35.3378 16.1388 35.741 16.5012 36.2331 16.7289C36.6808 16.9567 37.2649 17.0914 37.938 17.0914C38.4746 17.0914 39.0143 17.0016 39.5065 16.7739C39.9986 16.5012 40.4018 16.1388 40.6272 15.6865H40.6717V16.8637C40.7161 17.5436 40.5383 18.0857 40.224 18.493C39.9097 18.9453 39.4176 19.1281 38.7 19.1281C38.2524 19.1281 37.8936 19.0383 37.5348 18.8554C37.2205 18.6758 36.9506 18.3583 36.8617 17.9029H34.3948C34.4392 18.4 34.5726 18.8554 34.8425 19.2179C35.0679 19.5803 35.379 19.8979 35.7854 20.1224C36.1442 20.395 36.5474 20.5746 37.0395 20.6644C37.4872 20.7991 37.9349 20.8472 38.3857 20.8472C39.4176 20.8472 40.224 20.7125 40.8526 20.395C41.4368 20.1224 41.9289 19.7599 42.2433 19.3526C42.5576 18.9453 42.7798 18.5379 42.8719 18.0376C43.0052 17.5853 43.0497 17.1331 43.0497 16.7706V8.16521H42.7354C40.7637 8.21011 40.6717 9.38722 40.6717 9.38722Z" fill="#ED1C24"></path>
    <path fill-rule="evenodd" clip-rule="evenodd" d="M89.9998 9.52175V9.34214C89.8664 8.25483 88.5203 8.25483 88.5203 8.25483V3.36035H86.9963V8.25163H85.7422V9.51855H86.9963V15.6799C86.9963 16.7673 87.3106 17.6717 88.8346 17.6717C89.0155 17.6717 89.4632 17.5819 89.9998 17.537V16.315H89.4632C89.1489 16.315 88.5203 16.315 88.5203 15.5901V9.52175H89.9998Z" fill="#231F20"></path>
    <path fill-rule="evenodd" clip-rule="evenodd" d="M77.1737 8.79688C76.3228 7.8924 75.2909 8.70708 75.11 8.88669L71.6588 12.2833V3.36035H70.1793V17.6749H71.6588V14.1404L72.9605 12.9633L75.8307 17.6749H77.8023L74.0813 11.8311L77.1768 8.79688H77.1737Z" fill="#231F20"></path>
    <path fill-rule="evenodd" clip-rule="evenodd" d="M66.6359 12.1488L65.1119 11.7414C63.9022 11.4239 63.407 11.2443 63.407 10.5194C63.407 9.3423 64.7976 9.20438 65.2452 9.20438C66.2771 9.20438 66.8137 9.43211 67.0835 9.79454C67.0835 9.79454 67.9344 10.792 68.9218 10.4745C68.8329 9.70474 68.2487 7.84766 65.423 7.84766C63.5848 7.84766 61.9243 8.75214 61.9243 10.792C61.9243 12.059 62.7751 12.7389 64.0769 13.0565L65.8707 13.5087C67.1724 13.8262 67.6645 14.0989 67.6645 14.8237C67.6645 15.8661 66.6771 16.3184 65.5564 16.3184C63.4038 16.3184 63.1784 15.1413 63.1339 14.4164H61.6099C61.6988 15.5486 61.9687 17.6783 65.6008 17.6783C67.6645 17.6783 69.233 16.5012 69.233 14.5992C69.233 13.3323 68.5599 12.6074 66.6327 12.152L66.6359 12.1488Z" fill="#231F20"></path>
    <path fill-rule="evenodd" clip-rule="evenodd" d="M81.4792 9.24908C83.3619 9.24908 83.9461 10.5641 84.035 12.0139H80.0885C79.5043 12.0588 79.1456 12.3314 78.9233 12.604V12.0139C78.9233 10.5641 80.0441 9.24908 81.4792 9.24908ZM81.6125 16.315C79.8187 16.315 78.9233 15.1828 78.9233 13.2359H85.6479C85.6479 9.97395 84.3461 7.84424 81.7014 7.84424C78.6535 7.84424 77.2628 10.1087 77.2628 13.0081C77.2628 15.6799 78.7868 17.6749 81.3871 17.6749C82.8666 17.6749 83.4508 17.3125 83.8985 16.9949C85.0637 16.2252 85.4669 14.9101 85.5113 14.4579H83.9874C83.8985 15.1828 83.0444 16.315 81.6093 16.315H81.6125Z" fill="#231F20"></path>
    <path fill-rule="evenodd" clip-rule="evenodd" d="M58.9241 14.1853C58.9241 15.4073 57.489 16.3599 56.0539 16.3599C54.8887 16.3599 54.3934 15.7697 54.3934 14.7305C54.3934 13.5534 55.6031 13.3257 56.3651 13.2359C58.2923 12.9632 58.651 12.8285 58.9209 12.6457V14.1853H58.9241ZM60.9878 16.315C60.6735 16.315 60.4512 16.1803 60.4512 15.7729V10.4262C60.4512 8.02385 57.8065 7.84424 57.0445 7.84424C54.803 7.84424 53.3679 8.70382 53.279 10.8335C54.1299 10.9682 54.6696 10.4711 54.8919 10.1087C54.9363 10.0189 54.9808 9.92584 55.0697 9.83603C55.3396 9.42869 55.8317 9.11116 56.7746 9.11116C58.2542 9.11116 58.9717 9.65321 58.9717 10.6507C58.9717 11.5552 58.524 11.6931 58.1653 11.738L55.6094 12.0555C53.0091 12.3731 52.7837 14.1853 52.7837 14.955C52.7837 16.5844 53.9934 17.6717 55.6983 17.6717C57.4922 17.6717 58.3875 16.8121 59.0161 16.1321C59.0606 16.857 59.286 17.5819 60.629 17.5819C60.9878 17.5819 61.2132 17.4472 61.4799 17.3991V16.2669C61.3021 16.2669 61.1211 16.3118 60.9878 16.3118V16.315Z" fill="#231F20"></path>
    <path fill-rule="evenodd" clip-rule="evenodd" d="M48.2518 16.315C47.2644 16.315 45.7404 15.635 45.7404 13.191C45.7404 11.6515 46.0103 9.24913 48.2074 9.24913C50.6298 9.24913 50.7632 11.5135 50.7632 12.7356C50.7632 14.7755 49.9568 16.315 48.2518 16.315ZM48.5217 7.84429C47.4454 7.84429 46.5024 8.29653 45.877 9.29403H45.8325V3.36035H44.2641V17.4023H44.8483C45.6547 17.3574 45.7436 16.6325 45.7436 16.4978V16.2252H45.7881C46.1024 16.7673 46.731 17.6749 48.2994 17.6749C51.4395 17.6749 52.3348 14.6857 52.3348 12.4661C52.3348 9.83929 50.9442 7.84429 48.5249 7.84429H48.5217Z" fill="#231F20"></path>
    <path fill-rule="evenodd" clip-rule="evenodd" d="M17.542 26.6724H23.1013V28.3819H21.5075V32.4938H19.1898V28.3819H17.542V26.6724Z" fill="#1268B3"></path>
    <path fill-rule="evenodd" clip-rule="evenodd" d="M25.9164 29.0234L24.7449 32.4938H22.5224L24.7036 26.6724H27.1197L29.3549 32.4938H27.1007L25.9164 29.0234Z" fill="#1268B3"></path>
    <path fill-rule="evenodd" clip-rule="evenodd" d="M28.8218 26.6724H34.3811V28.3819H32.7873V32.4938H30.4696V28.3819H28.8218V26.6724Z" fill="#1268B3"></path>
    <path fill-rule="evenodd" clip-rule="evenodd" d="M37.1968 29.0234L36.0252 32.4938H33.8028L35.984 26.6724H38.4001L40.6352 32.4938H38.381L37.1968 29.0234Z" fill="#1268B3"></path>
    <path fill-rule="evenodd" clip-rule="evenodd" d="M46.7407 29.9246H44.5818V31.6246H46.9947V32.4938H43.534V26.698H46.8677V27.5704H44.5818V29.0586H46.7407V29.9246Z" fill="#1268B3"></path>
    <path fill-rule="evenodd" clip-rule="evenodd" d="M47.7893 29.5526C47.7893 29.0683 47.7734 28.6705 47.7544 28.3081H48.6687L48.7195 28.9368H48.7449C48.9291 28.6128 49.3768 28.2151 50.0625 28.2151C50.7833 28.2151 51.5357 28.6834 51.5357 30.008V32.4938H50.488V30.1331C50.488 29.5333 50.2689 29.0747 49.6974 29.0747C49.2815 29.0747 48.9926 29.373 48.8815 29.6969C48.8497 29.7835 48.8338 29.9118 48.8338 30.0337V32.497H47.7861V29.5558" fill="#1268B3"></path>
    <path fill-rule="evenodd" clip-rule="evenodd" d="M53.7639 27.2334V28.3079H54.7608V29.0969H53.7639V30.9444C53.7639 31.4575 53.9004 31.7173 54.3004 31.7173C54.4909 31.7173 54.5893 31.7045 54.7068 31.6724L54.729 32.4775C54.5703 32.5384 54.2972 32.5865 53.9671 32.5865C53.5829 32.5865 53.2622 32.455 53.0685 32.2401C52.8431 31.9996 52.7415 31.6147 52.7415 31.0662V29.0969H52.151V28.3079H52.7415V27.5285L53.767 27.2334" fill="#1268B3"></path>
    <path fill-rule="evenodd" clip-rule="evenodd" d="M58.0245 29.9501C58.0309 29.562 57.8626 28.9302 57.1609 28.9302C56.5164 28.9302 56.2497 29.5235 56.2021 29.9501H58.0245ZM56.2053 30.6878C56.2339 31.448 56.8149 31.7783 57.4848 31.7783C57.9674 31.7783 58.3103 31.7013 58.6278 31.5859L58.7833 32.314C58.4278 32.4647 57.9388 32.5802 57.3356 32.5802C55.9926 32.5802 55.2052 31.7398 55.2052 30.4569C55.2052 29.3022 55.8973 28.2085 57.2308 28.2085C58.5643 28.2085 59.0151 29.3279 59.0151 30.2452C59.0151 30.4408 58.9992 30.598 58.977 30.6974L56.2085 30.691L56.2053 30.6878Z" fill="#1268B3"></path>
    <path fill-rule="evenodd" clip-rule="evenodd" d="M59.778 29.6552C59.778 29.0939 59.7685 28.6834 59.7431 28.3081H60.6511L60.6892 29.1035H60.7178C60.921 28.5134 61.4036 28.2151 61.8512 28.2151C61.9528 28.2151 62.0131 28.2183 62.0957 28.2375V29.235C61.9973 29.2158 61.9052 29.2062 61.7814 29.2062C61.2829 29.2062 60.9368 29.5269 60.8416 30.008C60.8225 30.101 60.8162 30.2133 60.8162 30.3288V32.5002H59.7685L59.778 29.6584" fill="#1268B3"></path>
    <path fill-rule="evenodd" clip-rule="evenodd" d="M63.7543 30.7423C63.7543 30.8449 63.7638 30.9411 63.7829 31.0309C63.8908 31.4607 64.2591 31.7718 64.7036 31.7718C65.3671 31.7718 65.7577 31.2138 65.7577 30.3927C65.7577 29.6518 65.4021 29.0488 64.729 29.0488C64.2972 29.0488 63.9003 29.3663 63.7956 29.8314C63.7733 29.918 63.7575 30.011 63.7575 30.0976V30.7423M62.7129 29.6967C62.7129 29.1546 62.697 28.7024 62.678 28.3079H63.5987L63.6495 28.9525H63.6654C63.9702 28.4811 64.4528 28.2148 65.0846 28.2148C66.0339 28.2148 66.8213 29.0359 66.8213 30.3446C66.8213 31.8616 65.8815 32.5897 64.9385 32.5897C64.4178 32.5897 63.9861 32.3684 63.7733 32.0316H63.7575V34.1998H62.7129V29.6999V29.6967Z" fill="#1268B3"></path>
    <path fill-rule="evenodd" clip-rule="evenodd" d="M67.6097 29.6552C67.6097 29.0939 67.597 28.6834 67.5747 28.3081H68.4796L68.5177 29.1035H68.5463C68.7495 28.5134 69.2321 28.2151 69.6797 28.2151C69.7813 28.2151 69.8416 28.2183 69.9242 28.2375V29.235C69.8258 29.2158 69.7337 29.2062 69.6099 29.2062C69.1114 29.2062 68.7653 29.5269 68.6733 30.008C68.6542 30.101 68.6447 30.2133 68.6447 30.3288V32.5002H67.597L67.6065 29.6584" fill="#1268B3"></path>
    <path fill-rule="evenodd" clip-rule="evenodd" d="M71.0559 27.6601C70.6908 27.6601 70.4495 27.3907 70.4495 27.0571C70.4495 26.7203 70.6971 26.4541 71.0686 26.4541C71.4401 26.4541 71.6814 26.7139 71.6845 27.0571C71.6845 27.3939 71.4464 27.6601 71.0654 27.6601H71.0559ZM70.5447 28.308H71.5925V32.4936H70.5447V28.308Z" fill="#1268B3"></path>
    <path fill-rule="evenodd" clip-rule="evenodd" d="M72.5858 31.5216C72.8176 31.666 73.2684 31.8263 73.6431 31.8263C74.1034 31.8263 74.3098 31.6307 74.3098 31.3581C74.3098 31.0854 74.1383 30.9315 73.6304 30.7487C72.8207 30.4664 72.4842 30.0206 72.4874 29.5266C72.4874 28.7889 73.0938 28.218 74.059 28.218C74.5162 28.218 74.913 28.3335 75.1575 28.4682L74.9511 29.2123C74.7765 29.1129 74.4431 28.9718 74.0749 28.9718C73.7066 28.9718 73.4938 29.1578 73.4938 29.4144C73.4938 29.671 73.6939 29.8089 74.2177 30.0013C74.9702 30.2707 75.3194 30.6588 75.3226 31.2779C75.3226 32.0412 74.7352 32.5929 73.6399 32.5929C73.1382 32.5929 72.6842 32.471 72.3794 32.301L72.589 31.5313" fill="#1268B3"></path>
    <path fill-rule="evenodd" clip-rule="evenodd" d="M78.6558 29.9504C78.659 29.5623 78.4939 28.9304 77.7922 28.9304C77.1477 28.9304 76.881 29.5238 76.8334 29.9504H78.6558ZM76.8366 30.6881C76.8651 31.4482 77.4462 31.7786 78.1161 31.7786C78.5987 31.7786 78.9416 31.7016 79.259 31.5861L79.4146 32.3142C79.059 32.4649 78.5701 32.5804 77.9668 32.5804C76.6238 32.5804 75.8365 31.7401 75.8365 30.4571C75.8365 29.3025 76.5286 28.2087 77.8621 28.2087C79.1955 28.2087 79.6464 29.3281 79.6464 30.2454C79.6464 30.4411 79.6305 30.5982 79.6083 30.6977L76.8397 30.6913L76.8366 30.6881Z" fill="#1268B3"></path>
    <path fill-rule="evenodd" clip-rule="evenodd" d="M13.919 30.0559L13.4681 28.6286C13.357 28.2693 13.2617 27.8748 13.176 27.5381H13.157C13.0744 27.878 12.9855 28.279 12.8839 28.6254L12.4426 30.0559H13.919ZM12.2712 30.8577L11.7822 32.4967H10.6996L12.5379 26.7009H13.8713L15.735 32.4967H14.6111L14.0936 30.8577H12.2743H12.2712Z" fill="#1268B3"></path>
</svg>